<svg xmlns="http://www.w3.org/2000/svg" xmlns:xlink="http://www.w3.org/1999/xlink" fill="none" preserveAspectRatio="xMidYMid meet" stroke="#000" stroke-linecap="round" stroke-linejoin="round" style="fill: none;" version="1.0" viewBox="-0.3 -0.8 427.4 443.8" zoomAndPan="magnify" original_string_length="8773" width="24.33535225722369px" height="25.30140593851235px"><g id="__id5_sg55f4faos"><path class="selected" d="M27.254930 38.617698 C37.023179 24.695273 51.356797 16.898032 65.233079 9.087668 C75.231553 3.459861 86.523484 0.657492 98.555040 0.093406 C117.474961 -0.793618 134.169480 4.656943 148.839402 15.596091 C157.761399 22.249167 165.648606 30.615317 172.813096 39.202781 C179.186936 46.842429 184.293931 55.633628 189.299852 64.297995 C196.902879 77.457419 202.386644 91.553000 206.014146 106.348105 C209.570542 120.853232 212.573899 135.438315 213.039109 150.436301 C213.059373 151.087973 213.579454 151.724265 213.866746 152.367698 C214.579454 151.621177 215.803453 150.951011 215.927903 150.116721 C217.663743 138.482688 222.348436 127.851218 226.722947 117.079001 C231.280564 105.855979 237.075608 95.357200 244.868943 86.137046 C251.949876 77.759482 259.345872 69.599875 267.134935 61.880942 C278.004197 51.109763 288.846238 40.199973 300.665574 30.529624 C312.750657 20.641867 326.676683 13.621848 342.225267 10.353659 C366.139329 5.327109 388.532151 7.504294 406.629197 25.712729 C417.142381 36.290549 423.043504 49.675437 424.934007 64.532737 C425.994798 72.870566 427.147264 81.331076 426.824388 89.680747 C426.274827 103.891929 423.365647 117.788535 419.471604 131.540183 C413.679124 151.995444 404.671067 171.046836 395.786668 190.228843 C388.414476 206.146384 382.166185 222.582053 374.906785 238.554953 C370.437669 248.388572 365.084275 257.826560 359.982103 267.364158 C355.087815 276.513083 350.260423 285.713279 344.952317 294.622092 C333.630540 313.623557 322.055345 332.474753 310.512986 351.344138 C295.709519 375.544700 281.012376 399.813865 265.864183 423.797507 C262.280198 429.471946 257.496385 434.585959 252.496629 439.109031 C248.209031 442.987937 243.293260 441.215232 239.528611 436.549949 C236.321214 432.575217 232.385057 429.181540 228.714402 425.588767 C214.375047 411.554221 199.519212 398.004660 185.826158 383.366599 C176.016648 372.880271 167.526963 361.118064 158.867784 349.609519 C151.512620 339.834250 142.144212 332.315085 132.809251 324.708030 C124.740769 318.132834 116.580491 311.667991 108.376878 305.261863 C90.436326 291.252219 73.447679 276.180686 57.821153 259.627951 C45.883714 246.983054 35.900621 232.884665 26.923692 217.972251 C16.368089 200.437217 9.435960 181.485801 4.247666 161.894126 C2.182664 154.096396 1.869248 145.808554 1.057725 137.713828 C0.456285 131.713950 -0.301223 125.619956 0.123887 119.647178 C1.443467 101.105429 4.494371 82.871543 12.910813 66.003806 C17.460923 56.884665 22.297471 47.908408 27.254930 38.617698 M308.504930 54.367698 C299.511155 58.069358 290.812181 62.220237 284.669480 70.206321 C275.826707 81.703025 266.107591 92.647361 258.389451 104.855979 C249.062181 119.609885 241.134568 135.284568 233.159715 150.847007 C225.907395 164.999595 224.527513 180.804831 222.102830 196.217856 C220.875901 204.017722 220.815843 211.994162 219.962937 219.861960 C219.161912 227.250876 212.656602 231.094992 208.182786 226.676291 C206.401231 224.916648 206.694505 221.075400 205.991075 218.194480 C205.756089 217.231955 205.359300 216.308860 205.036546 215.367698 C204.359361 216.149741 203.449815 216.827720 203.045213 217.731711 C201.284898 221.664695 199.847398 225.749900 197.949266 229.610984 C196.433396 232.694480 190.626878 234.870139 188.359056 233.045798 C185.596849 230.823752 182.624253 228.549949 184.897569 223.780783 C188.601915 216.009604 191.705918 207.945151 194.884263 199.933493 C196.350694 196.236899 197.824571 192.795981 195.700181 188.346396 C190.198777 176.823630 185.317552 164.998557 180.384019 153.212424 C172.322984 133.954306 161.579393 116.275596 148.851121 99.814780 C142.342576 91.397544 135.281602 83.404624 128.400621 75.278952 C115.133836 59.612265 100.373582 45.766745 80.985643 37.921897 C73.440477 34.868918 65.624681 32.674033 57.380296 35.370505 C49.825730 37.841452 45.703111 44.338523 41.156419 50.015647 C38.033433 53.915000 35.679978 58.748435 34.155503 63.537619 C31.715745 71.202292 30.217088 79.081137 31.897996 87.346762 C33.138414 93.445823 32.730516 99.909507 34.218736 105.923240 C38.419969 122.899924 44.707444 139.193808 52.888780 154.643149 C61.298570 170.523948 69.961534 186.289573 79.089524 201.765952 C89.071519 218.690146 99.441270 235.401877 110.139512 251.883200 C122.195298 270.455954 134.699266 288.741721 147.228685 307.001120 C152.083848 314.076682 156.875352 321.409079 162.907884 327.405051 C169.299913 333.758567 176.969834 338.891867 184.372789 344.148093 C197.076707 353.168357 209.813768 362.169577 222.905198 370.607200 C232.809983 376.990989 243.294236 382.474753 253.507859 388.380881 C256.440599 390.076682 258.652635 390.311301 260.423631 386.574973 C262.149461 382.934226 264.632981 379.658957 266.689744 376.167746 C274.814866 362.375876 282.897630 348.559226 291.006517 334.757834 C298.092820 322.696433 305.063401 310.564353 312.321214 298.606955 C320.416551 285.269553 328.926072 272.183005 336.987474 258.825705 C347.270677 241.787131 356.747972 224.239158 367.544969 207.539512 C382.927293 183.747825 388.546678 157.226340 390.830247 129.739341 C391.600144 120.472007 390.684739 111.007102 389.910813 101.684653 C389.079515 91.671347 386.569993 82.097251 381.058641 73.380576 C370.496873 56.675925 355.397019 47.404624 335.808885 47.712241 C326.844285 47.853110 317.937791 51.701072 308.504930 54.367698 M197.504930 142.367698 C195.273545 131.136313 194.011521 119.595969 190.555528 108.754966 C186.599595 96.345603 181.444139 84.170981 175.468736 72.586081 C165.411607 53.087485 152.092942 36.118308 132.796006 24.647178 C118.039476 15.874900 102.405137 13.503684 85.816575 18.104697 C84.137498 18.570456 82.605332 19.565574 81.004930 20.314963 C82.611619 20.999228 84.219468 21.680991 85.824449 22.369346 C86.248765 22.551352 86.651658 22.790122 87.085740 22.941489 C101.382615 27.926047 113.278367 36.871054 123.943833 47.112693 C134.289048 57.046775 143.536546 68.145896 153.023912 78.946067 C167.201585 95.085593 177.991014 113.505820 187.928147 132.417258 C191.353990 138.936911 193.852525 145.940940 196.888963 152.672141 C197.222764 153.412070 198.313218 153.810752 199.052842 154.367698 C199.290635 153.454795 199.838426 152.495566 199.710008 151.637473 C199.269578 148.695029 198.592088 145.788169 197.504930 142.367698 M18.504869 108.367698 C17.671556 110.491721 16.137986 112.614463 16.133958 114.740134 C16.121141 121.593955 16.624131 128.451682 17.022935 135.302390 C17.257554 139.332297 17.172044 143.470786 18.096971 147.354087 C21.072190 159.845298 23.991929 172.272239 28.776658 184.366111 C38.174913 208.120932 51.879808 228.932761 68.934373 247.600486 C77.387254 256.852805 86.842759 265.200950 95.997117 273.795920 C101.082261 278.570334 106.453599 283.042868 111.767259 287.567649 C112.602464 288.278952 113.817491 288.544211 114.856980 289.015647 C114.485215 287.878562 114.366014 286.560080 113.700425 285.634177 C109.536363 279.842063 104.902574 274.359519 101.075975 268.358786 C92.619065 255.097312 84.417466 241.667624 76.351548 228.163352 C65.281663 209.629783 53.802354 191.299826 43.663865 172.261985 C32.918931 152.085166 22.239366 131.668601 18.504869 108.367698 M338.504930 32.367698 C345.311692 31.074790 351.741746 32.825644 358.070115 34.961631 C376.211473 41.084800 389.108811 53.466941 397.884568 70.017234 C404.119920 81.776450 406.912400 94.610007 406.057786 108.078025 C405.989793 109.150351 406.667405 110.269980 406.998460 111.367698 C407.667283 110.245932 408.866868 109.149558 408.921678 107.998557 C409.399339 97.992820 410.107347 87.965964 409.848680 77.968650 C409.682298 71.538657 408.536058 65.009482 406.909593 58.764243 C401.042283 36.235984 383.227098 23.496909 360.137010 24.524314 C352.491258 24.864524 344.906053 26.929282 337.338548 28.434287 C335.176561 28.864280 333.174119 30.096701 331.098436 30.961264 C333.233934 31.430075 335.369432 31.898887 338.504930 32.367698 M210.504930 381.367698 C209.582688 380.778708 208.717881 380.053367 207.723985 379.634299 C206.387315 379.070823 204.950975 378.743674 203.557420 378.315207 C204.249375 379.375510 204.765061 380.622458 205.660142 381.467673 C216.062913 391.290183 226.479661 401.099387 237.044969 410.745505 C237.942674 411.565085 240.314866 411.833396 241.332688 411.229392 C243.273484 410.077658 245.036790 408.305442 246.249070 406.394553 C246.784471 405.550559 246.256639 402.989158 245.429124 402.480857 C234.034349 395.479758 222.502854 388.700950 210.504930 381.367698 z" stroke="none" style="fill: rgb(153, 108, 41);"/></g></svg>