<?xml version="1.0" encoding="UTF-8" standalone="no"?>
<svg
   preserveAspectRatio="xMidYMid"
   version="1.0"
   viewBox="0 0 84.715851 495.46814"
   zoomAndPan="magnify"
   style="fill:#000000"
   original_string_length="17608"
   width="97.189034"
   height="566.31519"
   id="svg2"
   sodipodi:docname="line.svg"
   inkscape:version="1.4.2 (f4327f4, 2025-05-13)"
   xmlns:inkscape="http://www.inkscape.org/namespaces/inkscape"
   xmlns:sodipodi="http://sodipodi.sourceforge.net/DTD/sodipodi-0.dtd"
   xmlns="http://www.w3.org/2000/svg"
   xmlns:svg="http://www.w3.org/2000/svg">
  <sodipodi:namedview
     id="namedview2"
     pagecolor="#ffffff"
     bordercolor="#000000"
     borderopacity="0.25"
     inkscape:showpageshadow="2"
     inkscape:pageopacity="0.0"
     inkscape:pagecheckerboard="0"
     inkscape:deskcolor="#d1d1d1"
     inkscape:zoom="1.1045916"
     inkscape:cx="143.49195"
     inkscape:cy="232.21253"
     inkscape:window-width="1920"
     inkscape:window-height="1009"
     inkscape:window-x="-8"
     inkscape:window-y="-8"
     inkscape:window-maximized="1"
     inkscape:current-layer="svg2" />
  <defs
     id="defs1">
    <clipPath
       id="__id0_s782avlw3o">
      <path
         d="M 0,0 H 495.46875 V 85.03125 H 0 Z m 0,0"
         id="path1" />
    </clipPath>
  </defs>
  <g
     id="g2"
     transform="matrix(0,1,1,0,-0.92095787,-6.2036306e-4)">
    <g
       clip-path="url(#__id0_s782avlw3o)"
       id="__id1_s782avlw3o">
      <path
         d="m 331.64844,63.992188 c 0.58984,-0.0039 1.17187,-0.04688 1.7539,-0.109376 0.64453,-0.09375 1.27344,-0.214843 1.90625,-0.367187 0.70703,-0.195313 1.40625,-0.425781 2.08985,-0.695313 0.64843,-0.273437 1.28125,-0.578124 1.90234,-0.910156 0.69922,-0.402344 1.37109,-0.839844 2.01953,-1.3125 0.67578,-0.519531 1.31641,-1.074218 1.9336,-1.660156 0.71093,-0.707031 1.3789,-1.449219 2.0039,-2.234375 0.53906,-0.703125 1.03125,-1.429687 1.48438,-2.1875 0.42578,-0.75 0.80468,-1.519531 1.14843,-2.308594 0.3711,-0.921875 0.6875,-1.855469 0.96094,-2.8125 0.0156,-0.0625 0.0312,-0.125 0.0508,-0.1875 -0.004,0.0039 -0.004,0.0039 -0.004,0.0078 0.26172,-1.042969 0.46484,-2.097656 0.61718,-3.160156 0.12891,-1.078126 0.20313,-2.152344 0.21875,-3.234376 -0.008,-0.683593 -0.043,-1.363281 -0.0976,-2.042968 -2.02344,0.554687 -4.01953,1.191406 -5.96875,1.964844 -1.41016,0.578124 -2.78516,1.230468 -4.1211,1.964843 -1.25781,0.714844 -2.48046,1.488281 -3.64062,2.351563 -0.88672,0.671875 -1.73047,1.394531 -2.53516,2.164062 -0.87109,0.867188 -1.68359,1.785156 -2.44531,2.75 -0.76562,1 -1.48437,2.03125 -2.125,3.117188 -0.38281,0.679687 -0.73047,1.371094 -1.03906,2.089844 -0.17969,0.453124 -0.33594,0.914062 -0.47266,1.382812 -0.0859,0.355469 -0.15625,0.714844 -0.21094,1.078125 -0.0273,0.28125 -0.0469,0.566406 -0.0547,0.847656 0.004,0.199219 0.0156,0.394531 0.0351,0.589844 0.0274,0.167969 0.0586,0.335937 0.0977,0.503906 0.0352,0.121094 0.0742,0.238281 0.11719,0.355469 0.0508,0.117188 0.10547,0.234375 0.16406,0.347656 0.0586,0.09375 0.12109,0.1875 0.18359,0.28125 0.0742,0.08594 0.14453,0.175782 0.22266,0.257813 0.0937,0.09375 0.19141,0.183593 0.29687,0.269531 0.10938,0.07813 0.21875,0.148438 0.32813,0.21875 0.15625,0.08594 0.31641,0.160156 0.47656,0.230469 0.19141,0.07422 0.38281,0.140625 0.57813,0.199219 0.30078,0.07422 0.60156,0.128906 0.90625,0.175781 0.40625,0.04687 0.8125,0.06641 1.21875,0.07422 z m -114.5586,19.207031 c -3.07031,-1.4375 -5.55078,-4.039063 -6.91797,-7.128907 -0.60937,-1.382812 -0.72656,-2.917968 -0.59375,-4.40625 0.0781,-0.84375 0.20313,-1.699218 0.46094,-2.507812 0.27735,-0.875 0.63672,-1.703125 1.05469,-2.519531 0.89453,-1.769531 2.125,-3.316407 3.42969,-4.792969 1.42968,-1.613281 2.99218,-3.113281 4.58593,-4.558594 3.35547,-3.039062 6.94532,-5.796875 10.54297,-8.546875 3.44532,-2.628906 6.91407,-5.246093 10.05078,-8.25 1.08985,-1.082031 2.1211,-2.207031 3.07813,-3.410156 0.60156,-0.796875 1.17187,-1.617187 1.68359,-2.472656 -0.004,0.01172 -0.0117,0.02344 -0.0195,0.03516 0.008,-0.01563 0.0195,-0.03125 0.0273,-0.04687 0.0312,-0.05469 0.0625,-0.105469 0.0937,-0.160156 -0.0234,0.04297 -0.0508,0.08594 -0.0742,0.128906 0.41406,-0.722656 0.78515,-1.460938 1.125,-2.222656 0.28125,-0.675782 0.52343,-1.359375 0.73047,-2.058594 0.17187,-0.664062 0.30859,-1.332031 0.41406,-2.011719 0.0625,-0.539062 0.10547,-1.082031 0.12109,-1.625 -0.0117,-0.546875 -0.043,-1.089843 -0.10547,-1.632812 -0.082,-0.566407 -0.1875,-1.121094 -0.3164,-1.679688 -0.15235,-0.550781 -0.32422,-1.09375 -0.51953,-1.632812 -0.15235,-0.367188 -0.31641,-0.722657 -0.49219,-1.078125 -0.1875,-0.320313 -0.38672,-0.625 -0.60156,-0.929688 -0.2461,-0.300781 -0.5,-0.589844 -0.76563,-0.867187 -0.43359,-0.414063 -0.87891,-0.804688 -1.33984,-1.179688 -0.60938,-0.464843 -1.23828,-0.894531 -1.89453,-1.300781 -0.87891,-0.5 -1.77735,-0.949219 -2.70704,-1.347656 -1.03515,-0.410156 -2.08203,-0.761719 -3.15234,-1.0625 -1.45703,-0.375 -2.92578,-0.65625 -4.41406,-0.875 -1.94141,-0.234375 -3.88281,-0.355469 -5.84375,-0.382813 -2.8125,0.01172 -5.60547,0.207031 -8.39453,0.550781 -3.47657,0.480469 -6.90625,1.1875 -10.3086,2.046876 -4.39062,1.152343 -8.75781,2.464843 -12.98437,4.128906 -9.75391,4.042968 -18.99219,9.222656 -28.19922,14.367187 0.043,-0.02344 0.0859,-0.05078 0.13281,-0.07422 -0.15625,0.08594 -0.3125,0.171876 -0.46484,0.261719 0.004,-0.0039 0.004,-0.0039 0.008,-0.0039 -0.92578,0.515625 -1.84766,1.035156 -2.77344,1.550781 -0.46484,0.261719 -0.92968,0.519532 -1.39453,0.78125 -0.008,0.0039 -0.0117,0.0078 -0.0195,0.0078 -0.0625,0.04297 -0.12891,0.07813 -0.19531,0.109375 -0.0391,0.01953 -0.0781,0.04297 -0.11719,0.0625 -0.043,0.02734 -0.0898,0.05469 -0.13672,0.08203 -0.008,0.0039 -0.0195,0.01172 -0.0273,0.01563 -0.0547,0.03125 -0.10938,0.0625 -0.16406,0.08984 -0.47266,0.265625 -0.94532,0.527344 -1.41797,0.792968 -2.04688,1.140626 -4.09766,2.277344 -6.15625,3.398438 -1.94922,1.058594 -3.92188,2.074219 -5.89844,3.082031 -1.97656,1.007813 -3.96094,1.992188 -5.98047,2.890625 -4.21875,1.882813 -8.5,3.628906 -12.82812,5.234375 -2.45313,0.90625 -4.91797,1.773438 -7.39453,2.617188 -2.44922,0.832031 -4.92579,1.566406 -7.41407,2.265625 -4.97656,1.390625 -9.99218,2.621094 -15.062498,3.589844 -4.75,0.910156 -9.511718,1.734374 -14.300781,2.441406 -5.101562,0.746094 -10.222656,1.421875 -15.359375,1.910156 -4.902344,0.464844 -9.820312,0.84375 -14.734375,1.128906 -4.785156,0.277344 -9.59375,0.21875 -14.378906,0.191406 -2.53125,-0.01562 -5.0625,-0.03516 -7.59375,-0.136718 -2.527344,-0.101563 -5.046875,-0.289063 -7.566406,-0.503906 -1.242188,-0.105469 -2.484375,-0.226563 -3.726563,-0.355469 -0.578125,-0.05469 -1.15625,-0.125 -1.730468,-0.195313 -0.261719,-0.03125 -0.527344,-0.0625 -0.785157,-0.09766 -0.167969,-0.02344 -0.335937,-0.03906 -0.5,-0.07031 -0.128906,-0.01172 -0.257812,-0.03125 -0.390625,-0.04688 C 14.316406,64.503906 12.175781,64.144531 10.03125,63.785156 8.027344,63.449219 6.015625,63.09375 4.050781,62.566406 3.007812,62.285156 1.917969,62.007812 0.976562,61.46875 0.9375,61.449219 0.898438,61.425781 0.859375,61.402344 0.828125,61.386714 0.800781,61.363284 0.769531,61.347654 0.0351562,60.88281 -0.199219,59.859373 0.179688,59.10156 c 0.40625,-0.824218 1.53125,-1.277343 2.363281,-0.800781 0.167969,0.09766 0.339843,0.179688 0.515625,0.257813 C 3.695312,58.800781 4.34375,58.988281 5,59.167969 c 1.886719,0.480469 3.800781,0.828125 5.722656,1.152343 2.105469,0.351563 4.214844,0.707032 6.332032,0.988282 0.3125,0.03906 0.621093,0.08203 0.929687,0.125 -0.05078,-0.0078 -0.105469,-0.01563 -0.160156,-0.02344 3.75,0.453125 7.523437,0.816406 11.296875,1.015625 3.945312,0.207031 7.886718,0.238281 11.835937,0.25 -0.07422,0 -0.148437,0 -0.226562,0 2.730469,0.0039 5.460937,0.0039 8.1875,-0.05078 2.886719,-0.05859 5.769531,-0.234375 8.644531,-0.445312 5.867188,-0.429688 11.726562,-0.933594 17.5625,-1.667969 -0.07422,0.01172 -0.148438,0.01953 -0.226562,0.03125 5.238281,-0.683594 10.464843,-1.425781 15.667968,-2.328125 2.574219,-0.449219 5.144532,-0.929688 7.707032,-1.433594 2.871092,-0.558594 5.714842,-1.234375 8.546872,-1.957031 -0.0117,0.0039 -0.0234,0.0078 -0.0391,0.01172 4.22266,-1.097657 8.41797,-2.261719 12.55078,-3.667969 3.97266,-1.347657 7.91406,-2.785157 11.8125,-4.335938 -0.0703,0.03125 -0.13672,0.05859 -0.21094,0.08594 4.16016,-1.675781 8.27735,-3.433594 12.28907,-5.4375 4.08593,-2.042969 8.10156,-4.210938 12.09375,-6.425781 0.92187,-0.511719 1.83984,-1.023438 2.75781,-1.539063 0.17578,-0.105469 0.36328,-0.199219 0.54297,-0.300781 0.043,-0.02734 0.0859,-0.05078 0.13281,-0.07422 0.30859,-0.175781 0.62109,-0.347656 0.92969,-0.523437 1.08593,-0.605469 2.17187,-1.214844 3.25781,-1.824219 -0.043,0.02734 -0.0859,0.05078 -0.125,0.07422 8.20703,-4.589844 16.43359,-9.179688 25.01562,-13.054688 2.1875,-0.984375 4.39454,-1.914062 6.65625,-2.722656 2.10547,-0.757813 4.25,-1.40625 6.39454,-2.046875 4.28906,-1.289063 8.64843,-2.304688 13.0664,-3.035157 4.65235,-0.769531 9.40235,-1.027343 14.10547,-0.746093 4.33203,0.257812 8.65234,1.179687 12.60156,2.984375 1.92578,0.878906 3.75,2.082031 5.31641,3.503906 0.69922,0.628906 1.33984,1.316406 1.89062,2.082031 0.60157,0.832031 1.07813,1.769531 1.42969,2.734375 0.67188,1.847656 1.08985,3.792969 1.11719,5.761719 0.0273,1.949219 -0.30469,3.894531 -0.91406,5.742187 -2.0586,6.261719 -6.97657,10.976563 -11.97657,15.019532 -2.97656,2.40625 -6.05468,4.683594 -9.07421,7.03125 -3.08985,2.40625 -6.10938,4.90625 -8.92579,7.625 -1.30078,1.285156 -2.55078,2.613281 -3.70312,4.039062 -0.39844,0.53125 -0.76953,1.074219 -1.12109,1.640625 -0.3711,0.648438 -0.70704,1.308594 -1.00782,1.996094 -0.10156,0.273437 -0.19531,0.550781 -0.28515,0.832031 -0.0977,0.394532 -0.17969,0.785156 -0.24219,1.1875 -0.0547,0.46875 -0.0859,0.929688 -0.0977,1.402344 0.008,0.21875 0.0195,0.4375 0.043,0.65625 0.0312,0.183594 0.0625,0.367188 0.10156,0.550781 0.0625,0.199219 0.12891,0.394531 0.19922,0.59375 0.14063,0.308594 0.28907,0.605469 0.44922,0.902344 0.24219,0.410156 0.4961,0.808594 0.76953,1.195313 0.28125,0.363281 0.57813,0.710937 0.89063,1.042968 0.37109,0.367188 0.75781,0.707032 1.16015,1.035156 0.38282,0.28125 0.77344,0.542969 1.17579,0.792969 0.40625,0.222657 0.8164,0.425781 1.24218,0.609375 0.60547,0.234375 1.21875,0.4375 1.84375,0.617188 0.78516,0.195312 1.57422,0.347656 2.37891,0.464844 1.03125,0.121093 2.05859,0.179687 3.09375,0.195312 1.26953,-0.01563 2.52734,-0.09766 3.78516,-0.234375 1.76171,-0.230469 3.5039,-0.574219 5.23046,-1.007813 2.27344,-0.605468 4.5,-1.355468 6.69141,-2.222656 -0.0703,0.02734 -0.14062,0.05469 -0.21094,0.08594 2.82813,-1.148438 5.56641,-2.46875 8.23047,-3.957032 -0.0664,0.03906 -0.13281,0.07422 -0.19922,0.113282 2.58203,-1.46875 5.0586,-3.089844 7.44532,-4.851563 3.26171,-2.46875 6.33203,-5.164062 9.36328,-7.90625 2.6289,-2.382812 5.24218,-4.78125 7.8789,-7.152343 2.64844,-2.375 5.32422,-4.722657 8.05078,-7.003907 2.75,-2.300781 5.57422,-4.511719 8.44922,-6.65625 -0.0117,0.0078 -0.0195,0.01563 -0.0312,0.02344 3.19141,-2.378907 6.44922,-4.664063 9.75782,-6.878907 3.44531,-2.304687 6.95703,-4.542968 10.57031,-6.566406 4.48437,-2.511718 9.24219,-4.496094 14.28125,-5.558594 2.21875,-0.46875 4.51562,-0.671874 6.78125,-0.613281 2.0625,0.04687 4.08984,0.375 6.07812,0.925781 2.86328,0.796876 5.50782,2.3125 7.76953,4.21875 2.22266,1.871094 3.95704,4.355469 5.07813,7.027344 0.42969,1.027344 0.78125,2.078125 1.05859,3.148438 0.53125,-0.121094 1.0625,-0.238282 1.59375,-0.351563 2.89453,-0.625 5.82422,-1.097656 8.78125,-1.339843 2.55469,-0.207032 5.1211,-0.226563 7.6836,-0.332032 3.26172,-0.128906 6.51172,-0.367187 9.7539,-0.761718 -0.0742,0.0078 -0.14843,0.01953 -0.22265,0.03125 3.71484,-0.480469 7.38281,-1.191407 11.01172,-2.125 4.42578,-1.175782 8.76171,-2.632813 13.01953,-4.324219 -0.0703,0.02734 -0.14063,0.05469 -0.21094,0.08594 5.77734,-2.328125 11.33203,-5.121094 16.77344,-8.152344 -0.0234,0.01172 -0.0469,0.02734 -0.0703,0.03906 4.31641,-2.421875 8.5625,-4.976563 12.91016,-7.339844 2.08594,-1.132812 4.19922,-2.210937 6.35156,-3.210937 2.08203,-0.960938 4.21094,-1.820313 6.35938,-2.621094 4.02734,-1.5 8.16406,-2.707031 12.33984,-3.714844 3.53125,-0.855468 7.10156,-1.546875 10.70703,-1.992187 4.19532,-0.515625 8.4336,-0.4375 12.58203,0.398437 4.375,0.875 8.57422,2.433594 12.66797,4.179688 0.88672,0.378906 1.20703,1.542968 0.80078,2.367187 -0.21093,0.421875 -0.58593,0.75 -1.03125,0.894531 -0.45703,0.148438 -0.90234,0.089844 -1.33593,-0.09375 -0.35938,-0.152343 -0.71485,-0.304687 -1.07813,-0.453124 0.0742,0.027343 0.14453,0.058593 0.21875,0.089843 -2.67969,-1.109375 -5.39844,-2.097656 -8.1914,-2.875 0.0508,0.011719 0.10156,0.027344 0.15625,0.039063 -0.0586,-0.015625 -0.11329,-0.03125 -0.17188,-0.042969 -0.0156,-0.00781 -0.0352,-0.011719 -0.0508,-0.015625 0.0156,0.00391 0.0312,0.00781 0.0508,0.011719 -1.67187,-0.4375 -3.35937,-0.792969 -5.07422,-1.03125 -1.36719,-0.164063 -2.73437,-0.257813 -4.10937,-0.273438 -1.87891,0.00781 -3.75,0.152344 -5.61328,0.382813 0.0508,-0.00781 0.10156,-0.015625 0.15234,-0.019532 -3.93359,0.511719 -7.81641,1.332032 -11.65625,2.3125 0.0703,-0.019531 0.14453,-0.039062 0.21875,-0.058593 -4.18359,1.085937 -8.30859,2.386719 -12.33594,3.960937 -4.17969,1.675782 -8.1875,3.699219 -12.125,5.886719 -4.30859,2.414063 -8.54687,4.957031 -12.88672,7.324219 -4.4375,2.433594 -8.97265,4.6875 -13.64843,6.628906 -4.6211,1.917969 -9.35157,3.550781 -14.17579,4.859375 -4.72265,1.28125 -9.53125,2.128906 -14.39453,2.636719 -3.4414,0.359375 -6.89843,0.496094 -10.35156,0.609375 -2.42578,0.07813 -4.84375,0.183593 -7.25391,0.476562 -2.52343,0.335938 -5.03125,0.816407 -7.51171,1.390625 0.38281,3.46875 0.0625,7.023438 -0.83985,10.394532 -0.42969,1.558593 -0.98437,3.0625 -1.67969,4.519531 -0.68359,1.4375 -1.55859,2.78125 -2.53125,4.039062 -1.77734,2.292969 -3.96875,4.324219 -6.46875,5.804688 -2.11328,1.253906 -4.41796,2.132812 -6.83203,2.578125 -1.0664,0.195312 -2.14843,0.277344 -3.22656,0.273437 -0.92187,-0.0039 -1.85937,-0.08984 -2.75391,-0.328125 -1.73437,-0.464844 -3.33593,-1.398437 -4.28515,-2.96875 -0.98828,-1.640625 -1.13672,-3.5625 -0.84766,-5.421875 0.33985,-2.179687 1.33985,-4.195312 2.46485,-6.066406 0.63281,-1.050781 1.35546,-2.046875 2.11328,-3.015625 0.77343,-0.984375 1.59765,-1.933594 2.48828,-2.816406 4.04297,-3.992188 9.17187,-6.714844 14.53125,-8.492188 1.25781,-0.414062 2.53125,-0.789062 3.80859,-1.132812 -0.008,-0.03125 -0.0156,-0.05859 -0.0234,-0.08984 -0.21093,-0.765625 -0.46093,-1.515625 -0.74609,-2.257812 -0.26172,-0.613282 -0.54297,-1.210938 -0.85547,-1.800782 -0.32812,-0.574218 -0.67969,-1.128906 -1.0625,-1.671875 -0.45703,-0.597656 -0.9414,-1.164062 -1.46094,-1.710937 -0.48046,-0.46875 -0.98046,-0.914063 -1.5,-1.335938 -0.65234,-0.492187 -1.32031,-0.941406 -2.01562,-1.355468 -0.60547,-0.335938 -1.22266,-0.644532 -1.85547,-0.925782 -0.79297,-0.320312 -1.59375,-0.597656 -2.41797,-0.832031 -0.86328,-0.214844 -1.73437,-0.378906 -2.61328,-0.503906 -0.95312,-0.101563 -1.89844,-0.15625 -2.85156,-0.164063 -1.03516,0.01953 -2.0625,0.09375 -3.09375,0.210938 -1.3086,0.179687 -2.59766,0.429687 -3.88281,0.746094 -1.72657,0.460937 -3.41407,1.027343 -5.07813,1.671874 0.0469,-0.01953 0.0977,-0.03906 0.14453,-0.05859 -2.11719,0.855469 -4.16797,1.839843 -6.17187,2.933593 -3.53907,1.984376 -6.97266,4.152344 -10.34766,6.394532 -3.34375,2.222656 -6.62891,4.527344 -9.85156,6.914062 -0.14844,0.109375 -0.29297,0.21875 -0.44141,0.328125 0.0117,-0.0078 0.0195,-0.01172 0.0234,-0.01953 -3.14844,2.359375 -6.22656,4.8125 -9.22656,7.355469 -3.07422,2.609375 -6.07813,5.296875 -9.06641,8 -2.91797,2.644531 -5.80859,5.320312 -8.76562,7.921875 -3.83204,3.378906 -7.8711,6.535156 -12.25,9.179687 -4.02735,2.433594 -8.29688,4.492188 -12.73829,6.0625 -4.07812,1.441407 -8.34765,2.476563 -12.67968,2.710938 -0.60157,0.03125 -1.20703,0.05078 -1.8125,0.05078 -3.1875,0 -6.41797,-0.484375 -9.3086,-1.832031"
         id="path2" />
    </g>
  </g>
</svg>
